<?xml version="1.0" encoding="iso-8859-1"?>
<!-- Generator: Adobe Illustrator 19.0.0, SVG Export Plug-In . SVG Version: 6.00 Build 0)  -->
<svg version="1.1" id="Layer_1" xmlns="http://www.w3.org/2000/svg" xmlns:xlink="http://www.w3.org/1999/xlink" x="0px" y="0px"
	 viewBox="0 0 512.002 512.002" style="enable-background:new 0 0 512.002 512.002;" xml:space="preserve">
<polygon style="fill:#CEE8FA;" points="405.579,379.726 232.077,256.002 405.579,132.276 "/>
<g>
	<path style="fill:#2D527C;" d="M405.582,395.462c-3.218,0-6.42-0.985-9.137-2.923L222.941,268.813
		c-4.14-2.953-6.599-7.725-6.599-12.811c0-5.085,2.459-9.857,6.599-12.811l173.504-123.726c4.796-3.419,11.1-3.875,16.34-1.177
		c5.238,2.697,8.529,8.095,8.529,13.988v247.452c0,5.892-3.292,11.289-8.529,13.988
		C410.515,394.884,408.043,395.462,405.582,395.462z M259.177,256.002l130.669,93.181V162.821L259.177,256.002z"/>
	<path style="fill:#2D527C;" d="M471.362,116.544c-8.688,0-15.734,7.044-15.734,15.734v334.916L132.344,256.002L479.967,28.909
		c7.275-4.753,9.321-14.502,4.568-21.778c-4.752-7.274-14.502-9.321-21.778-4.568L94.969,242.829
		c-0.024,0.016-0.042,0.035-0.066,0.049c-0.5,0.33-0.98,0.689-1.438,1.073c-0.11,0.093-0.211,0.194-0.318,0.29
		c-0.337,0.299-0.662,0.609-0.972,0.936c-0.135,0.143-0.266,0.288-0.395,0.436c-0.283,0.321-0.551,0.653-0.807,0.996
		c-0.099,0.132-0.201,0.26-0.296,0.395c-0.68,0.974-1.251,2.027-1.699,3.144c-0.05,0.126-0.093,0.253-0.14,0.381
		c-0.162,0.436-0.305,0.878-0.428,1.331c-0.046,0.165-0.088,0.329-0.127,0.496c-0.104,0.437-0.187,0.881-0.253,1.331
		c-0.024,0.162-0.055,0.323-0.074,0.486c-0.069,0.601-0.115,1.21-0.115,1.83v205.119H56.371V52.032H87.84v119.58
		c0,8.69,7.044,15.734,15.734,15.734c8.69,0,15.734-7.044,15.734-15.734V36.298c0-8.69-7.044-15.734-15.734-15.734H40.637
		c-8.69,0-15.734,7.044-15.734,15.734v440.557c0,8.69,7.044,15.734,15.734,15.734h62.937c8.69,0,15.734-7.044,15.734-15.734V285.074
		L462.759,509.44c2.606,1.702,5.601,2.562,8.607,2.562c2.569,0,5.147-0.629,7.488-1.898c5.081-2.749,8.245-8.061,8.245-13.837
		v-363.99C487.096,123.588,480.052,116.544,471.362,116.544z"/>
</g>
<g>
</g>
<g>
</g>
<g>
</g>
<g>
</g>
<g>
</g>
<g>
</g>
<g>
</g>
<g>
</g>
<g>
</g>
<g>
</g>
<g>
</g>
<g>
</g>
<g>
</g>
<g>
</g>
<g>
</g>
</svg>
