<?xml version="1.0" encoding="iso-8859-1"?>
<!-- Generator: Adobe Illustrator 19.0.0, SVG Export Plug-In . SVG Version: 6.00 Build 0)  -->
<svg version="1.1" id="Layer_1" xmlns="http://www.w3.org/2000/svg" xmlns:xlink="http://www.w3.org/1999/xlink" x="0px" y="0px"
	 viewBox="0 0 512 512" style="enable-background:new 0 0 512 512;" xml:space="preserve">
<g>
	<path style="fill:#2D527C;" d="M496.106,512H15.896c-8.779,0-15.895-7.116-15.895-15.895s7.116-15.895,15.895-15.895h464.313V31.79
		H31.791v367.035c0,8.779-7.116,15.895-15.895,15.895s-15.895-7.116-15.895-15.895V15.895C0.001,7.116,7.119,0,15.896,0h480.208
		c8.779,0,15.895,7.116,15.895,15.895v480.21C512.001,504.884,504.884,512,496.106,512z"/>
	<path style="fill:#2D527C;" d="M426.081,441.975H85.923c-8.779,0-15.895-7.116-15.895-15.895V85.92
		c0-8.779,7.116-15.895,15.895-15.895h340.158c8.779,0,15.895,7.116,15.895,15.895s-7.116,15.895-15.895,15.895H101.818v308.369
		h308.368V154.829c0-8.779,7.116-15.895,15.895-15.895s15.895,7.116,15.895,15.895V426.08
		C441.976,434.859,434.86,441.975,426.081,441.975z"/>
</g>
<polygon style="fill:#CEE8FA;" points="329.345,347.136 182.658,256.001 329.345,164.865 "/>
<path style="fill:#2D527C;" d="M337.069,150.973c-5.045-2.807-11.211-2.653-16.113,0.391l-122.404,76.048v-63.608
	c0-8.779-7.116-15.895-15.895-15.895s-15.895,7.116-15.895,15.895v184.394c0,8.779,7.116,15.895,15.895,15.895
	s15.895-7.116,15.895-15.895V284.59l122.404,76.048c2.564,1.593,5.474,2.394,8.39,2.394c2.656,0,5.319-0.666,7.723-2.003
	c5.044-2.804,8.172-8.121,8.172-13.892V164.865C345.241,159.094,342.112,153.777,337.069,150.973z M313.45,318.547l-100.673-62.546
	l100.673-62.546L313.45,318.547L313.45,318.547z"/>
<g>
</g>
<g>
</g>
<g>
</g>
<g>
</g>
<g>
</g>
<g>
</g>
<g>
</g>
<g>
</g>
<g>
</g>
<g>
</g>
<g>
</g>
<g>
</g>
<g>
</g>
<g>
</g>
<g>
</g>
</svg>
