<?xml version="1.0" encoding="iso-8859-1"?>
<!-- Generator: Adobe Illustrator 19.0.0, SVG Export Plug-In . SVG Version: 6.00 Build 0)  -->
<svg version="1.1" id="Layer_1" xmlns="http://www.w3.org/2000/svg" xmlns:xlink="http://www.w3.org/1999/xlink" x="0px" y="0px"
	 viewBox="0 0 512 512" style="enable-background:new 0 0 512 512;" xml:space="preserve">
<path style="fill:#2D527C;" d="M489.948,433.559c-5.281,0-10.42-2.733-13.262-7.629L255.999,45.83L48.674,402.917h327.79
	c8.461,0,15.32,6.859,15.32,15.32c0,8.461-6.859,15.32-15.32,15.32H22.065c-5.48,0-10.543-2.928-13.277-7.677
	c-2.735-4.749-2.724-10.597,0.029-15.335L242.751,7.628C245.492,2.906,250.54,0,255.999,0s10.506,2.906,13.248,7.628
	l233.934,402.917c4.248,7.317,1.76,16.692-5.556,20.94C495.204,432.891,492.558,433.559,489.948,433.559z"/>
<polygon style="fill:#CEE8FA;" points="135.534,354.188 255.999,139.269 376.463,354.188 "/>
<g>
	<path style="fill:#2D527C;" d="M376.496,369.508c-0.009,0-0.018,0-0.031,0H135.534c-5.438,0-10.469-2.883-13.218-7.576
		s-2.805-10.491-0.146-15.235l120.465-214.918c2.71-4.835,7.821-7.828,13.363-7.828c5.543,0,10.653,2.995,13.363,7.828
		l120.015,214.117c1.543,2.39,2.437,5.236,2.437,8.294C391.815,362.65,384.955,369.508,376.496,369.508z M161.683,338.869h188.633
		l-94.316-168.267L161.683,338.869z"/>
	<path style="fill:#2D527C;" d="M489.932,512H22.065c-8.461,0-15.32-6.859-15.32-15.32c0-8.461,6.859-15.32,15.32-15.32h467.867
		c8.461,0,15.32,6.859,15.32,15.32C505.252,505.141,498.393,512,489.932,512z"/>
</g>
<g>
</g>
<g>
</g>
<g>
</g>
<g>
</g>
<g>
</g>
<g>
</g>
<g>
</g>
<g>
</g>
<g>
</g>
<g>
</g>
<g>
</g>
<g>
</g>
<g>
</g>
<g>
</g>
<g>
</g>
</svg>
