<?xml version="1.0" encoding="iso-8859-1"?>
<!-- Generator: Adobe Illustrator 19.0.0, SVG Export Plug-In . SVG Version: 6.00 Build 0)  -->
<svg version="1.1" id="Layer_1" xmlns="http://www.w3.org/2000/svg" xmlns:xlink="http://www.w3.org/1999/xlink" x="0px" y="0px"
	 viewBox="0 0 512 512" style="enable-background:new 0 0 512 512;" xml:space="preserve">
<g>
	<path style="fill:#2D527C;" d="M496.105,512H15.895C7.118,512,0,504.884,0,496.105s7.118-15.895,15.895-15.895H480.21V31.79H31.79
		v367.035c0,8.779-7.118,15.895-15.895,15.895S0,407.605,0,398.826V15.895C0,7.116,7.118,0,15.895,0h480.21
		C504.882,0,512,7.116,512,15.895v480.21C512,504.884,504.884,512,496.105,512z"/>
	<path style="fill:#2D527C;" d="M426.08,441.975H85.922c-8.777,0-15.895-7.116-15.895-15.895V85.92
		c0-8.779,7.118-15.895,15.895-15.895H426.08c8.777,0,15.895,7.116,15.895,15.895s-7.118,15.895-15.895,15.895H101.817v308.369
		h308.368V154.829c0-8.779,7.118-15.895,15.895-15.895c8.777,0,15.895,7.116,15.895,15.895V426.08
		C441.975,434.859,434.857,441.975,426.08,441.975z"/>
</g>
<polygon style="fill:#CEE8FA;" points="357.692,331.203 246.081,256.001 357.692,180.797 "/>
<g>
	<path style="fill:#2D527C;" d="M357.694,347.098c-3.111,0-6.209-0.911-8.884-2.713l-111.612-75.204
		c-4.385-2.953-7.013-7.895-7.013-13.182c0-5.287,2.627-10.229,7.013-13.182l111.612-75.204c4.87-3.282,11.158-3.611,16.348-0.85
		c5.188,2.759,8.429,8.156,8.429,14.032v150.406c0,5.876-3.241,11.273-8.429,14.032
		C362.817,346.481,360.253,347.098,357.694,347.098z M274.528,256.001l67.269,45.327v-90.652L274.528,256.001z"/>
	<path style="fill:#2D527C;" d="M262.305,342.49c-2.982,0-5.997-0.838-8.68-2.591l-108.013-70.592
		c-4.492-2.936-7.199-7.94-7.199-13.306c0-5.366,2.707-10.37,7.199-13.306l108.013-70.592c7.348-4.804,17.197-2.739,22.002,4.61
		c4.802,7.348,2.739,17.199-4.61,22.001l-87.654,57.288l87.654,57.288c7.348,4.802,9.413,14.652,4.61,22.001
		C272.576,339.955,267.493,342.49,262.305,342.49z"/>
</g>
<g>
</g>
<g>
</g>
<g>
</g>
<g>
</g>
<g>
</g>
<g>
</g>
<g>
</g>
<g>
</g>
<g>
</g>
<g>
</g>
<g>
</g>
<g>
</g>
<g>
</g>
<g>
</g>
<g>
</g>
</svg>
