<?xml version="1.0" encoding="iso-8859-1"?>
<!-- Generator: Adobe Illustrator 19.0.0, SVG Export Plug-In . SVG Version: 6.00 Build 0)  -->
<svg version="1.1" id="Layer_1" xmlns="http://www.w3.org/2000/svg" xmlns:xlink="http://www.w3.org/1999/xlink" x="0px" y="0px"
	 viewBox="0 0 512 512" style="enable-background:new 0 0 512 512;" xml:space="preserve">
<g>
	<path style="fill:#2D527C;" d="M255.997,512c-68.381,0-132.668-26.629-181.02-74.98c-5.669-5.669-5.669-14.862,0-20.533
		c5.671-5.668,14.861-5.668,20.533,0c42.867,42.867,99.863,66.476,160.488,66.476s117.62-23.609,160.488-66.476
		S482.961,316.624,482.961,256s-23.609-117.62-66.476-160.488s-99.863-66.476-160.488-66.476S138.377,52.645,95.509,95.512
		c-57.256,57.256-79.73,141.45-58.65,219.728c2.085,7.742-2.503,15.708-10.244,17.795c-7.75,2.085-15.708-2.503-17.795-10.244
		C-2.68,280.078-2.936,234.855,8.085,192.006c11.355-44.152,34.486-84.62,66.892-117.025C123.329,26.629,187.616,0,255.997,0
		s132.668,26.629,181.02,74.98s74.98,112.639,74.98,181.02s-26.629,132.668-74.98,181.02S324.377,512,255.997,512z"/>
	<path style="fill:#2D527C;" d="M255.997,452.028c-108.091,0-196.028-87.937-196.028-196.028S147.906,59.972,255.997,59.972
		c69.932,0,135.071,37.687,169.997,98.355c4.001,6.948,1.61,15.825-5.338,19.824c-6.951,4.003-15.823,1.611-19.824-5.338
		c-29.76-51.693-85.258-83.807-144.834-83.807c-92.08,0-166.992,74.913-166.992,166.992S163.918,422.99,255.997,422.99
		s166.992-74.913,166.992-166.992c0-8.017,6.501-14.518,14.518-14.518s14.518,6.501,14.518,14.518
		C452.025,364.091,364.088,452.028,255.997,452.028z"/>
</g>
<polygon style="fill:#CEE8FA;" points="167.473,324.688 269.414,256 167.473,187.313 "/>
<g>
	<path style="fill:#2D527C;" d="M167.472,339.206c-2.336,0-4.679-0.563-6.818-1.702c-4.739-2.52-7.699-7.449-7.699-12.816V187.314
		c0-5.367,2.96-10.296,7.699-12.816c4.742-2.522,10.482-2.221,14.932,0.777l101.941,68.687c4.006,2.697,6.405,7.211,6.405,12.04
		c0,4.829-2.4,9.342-6.405,12.04l-101.941,68.688C173.144,338.372,170.313,339.206,167.472,339.206z M181.991,214.601v82.798
		l61.44-41.399L181.991,214.601z"/>
	<path style="fill:#2D527C;" d="M254.596,334.995c-4.739,0-9.382-2.316-12.168-6.577c-4.386-6.712-2.501-15.708,4.21-20.096
		L326.698,256l-80.059-52.323c-6.712-4.386-8.598-13.384-4.21-20.096c4.387-6.712,13.384-8.595,20.096-4.21l98.654,64.476
		c4.103,2.681,6.575,7.252,6.575,12.153s-2.472,9.472-6.575,12.153l-98.654,64.476C260.074,334.23,257.319,334.995,254.596,334.995z
		"/>
</g>
<g>
</g>
<g>
</g>
<g>
</g>
<g>
</g>
<g>
</g>
<g>
</g>
<g>
</g>
<g>
</g>
<g>
</g>
<g>
</g>
<g>
</g>
<g>
</g>
<g>
</g>
<g>
</g>
<g>
</g>
</svg>
