<?xml version="1.0" encoding="iso-8859-1"?>
<!-- Generator: Adobe Illustrator 19.0.0, SVG Export Plug-In . SVG Version: 6.00 Build 0)  -->
<svg version="1.1" id="Layer_1" xmlns="http://www.w3.org/2000/svg" xmlns:xlink="http://www.w3.org/1999/xlink" x="0px" y="0px"
	 viewBox="0 0 512 512" style="enable-background:new 0 0 512 512;" xml:space="preserve">
<polygon style="fill:#CEE8FA;" points="189.008,172.761 322.985,256 189.008,339.239 "/>
<g>
	<path style="fill:#2D527C;" d="M322.985,157.273c-8.018,0-14.518,6.501-14.518,14.518v58.097L196.669,160.43
		c-4.476-2.779-10.109-2.918-14.717-0.357c-4.607,2.562-7.464,7.417-7.464,12.689v166.478c0,5.271,2.857,10.128,7.464,12.689
		c2.197,1.221,4.628,1.829,7.054,1.829c2.663,0,5.321-0.732,7.663-2.186l111.799-69.458v58.097c0,8.017,6.5,14.518,14.518,14.518
		s14.518-6.501,14.518-14.518V171.791C337.503,163.775,331.004,157.273,322.985,157.273z M203.526,313.128V198.873l91.95,57.128
		L203.526,313.128z"/>
	<path style="fill:#2D527C;" d="M255.996,512c-68.38,0-132.667-26.629-181.02-74.98c-5.669-5.669-5.669-14.862,0-20.533
		c5.669-5.668,14.862-5.668,20.533,0c42.867,42.867,99.863,66.476,160.488,66.476s117.62-23.609,160.488-66.476
		S482.961,316.624,482.961,256s-23.608-117.62-66.476-160.488s-99.863-66.476-160.488-66.476S138.376,52.645,95.509,95.512
		c-57.256,57.256-79.728,141.45-58.651,219.728c2.085,7.742-2.501,15.708-10.244,17.795c-7.742,2.083-15.708-2.501-17.793-10.245
		c-11.501-42.712-11.755-87.935-0.735-130.784c11.355-44.152,34.486-84.62,66.892-117.025C123.328,26.629,187.617,0,255.996,0
		s132.667,26.629,181.02,74.98c48.352,48.352,74.98,112.639,74.98,181.02s-26.629,132.668-74.98,181.02
		C388.663,485.371,324.376,512,255.996,512z"/>
	<path style="fill:#2D527C;" d="M255.996,452.028c-108.091,0-196.028-87.937-196.028-196.028S147.906,59.972,255.996,59.972
		c69.93,0,135.07,37.687,169.997,98.355c4,6.948,1.61,15.825-5.338,19.824c-6.947,4.004-15.825,1.611-19.826-5.338
		c-29.76-51.693-85.258-83.807-144.833-83.807c-92.08,0-166.992,74.913-166.992,166.992S163.918,422.99,255.996,422.99
		s166.992-74.913,166.992-166.992c0-8.017,6.5-14.518,14.518-14.518c8.018,0,14.518,6.501,14.518,14.518
		C452.024,364.091,364.086,452.028,255.996,452.028z"/>
</g>
<g>
</g>
<g>
</g>
<g>
</g>
<g>
</g>
<g>
</g>
<g>
</g>
<g>
</g>
<g>
</g>
<g>
</g>
<g>
</g>
<g>
</g>
<g>
</g>
<g>
</g>
<g>
</g>
<g>
</g>
</svg>
