<?xml version="1.0" encoding="iso-8859-1"?>
<!-- Generator: Adobe Illustrator 19.0.0, SVG Export Plug-In . SVG Version: 6.00 Build 0)  -->
<svg version="1.1" id="Layer_1" xmlns="http://www.w3.org/2000/svg" xmlns:xlink="http://www.w3.org/1999/xlink" x="0px" y="0px"
	 viewBox="0 0 512 512" style="enable-background:new 0 0 512 512;" xml:space="preserve">
<g>
	<path style="fill:#2D527C;" d="M496.105,512H15.895C7.116,512,0,504.884,0,496.105s7.116-15.895,15.895-15.895H480.21V31.79H31.79
		v367.035c0,8.779-7.116,15.895-15.895,15.895S0,407.605,0,398.826V15.895C0,7.116,7.116,0,15.895,0h480.21
		C504.882,0,512,7.116,512,15.895v480.21C512,504.884,504.884,512,496.105,512z"/>
	<path style="fill:#2D527C;" d="M426.078,441.975H85.92c-8.779,0-15.895-7.116-15.895-15.895V85.92
		c0-8.779,7.116-15.895,15.895-15.895h340.158c8.777,0,15.895,7.116,15.895,15.895s-7.118,15.895-15.895,15.895H101.815v308.369
		h308.368V154.829c0-8.779,7.118-15.895,15.895-15.895c8.777,0,15.895,7.116,15.895,15.895V426.08
		C441.973,434.859,434.857,441.975,426.078,441.975z"/>
</g>
<polygon style="fill:#CEE8FA;" points="182.655,164.865 329.345,256.001 182.655,347.136 "/>
<path style="fill:#2D527C;" d="M329.343,147.908c-8.777,0-15.895,7.116-15.895,15.895v63.608l-122.403-76.048
	c-4.9-3.046-11.069-3.195-16.113-0.391c-5.044,2.804-8.172,8.121-8.172,13.892v182.271c0,5.77,3.128,11.089,8.172,13.892
	c2.405,1.338,5.067,2.003,7.724,2.003c2.915,0,5.826-0.801,8.389-2.394l122.403-76.048v63.608c0,8.779,7.118,15.895,15.895,15.895
	s15.895-7.116,15.895-15.895V163.804C345.238,155.025,338.122,147.908,329.343,147.908z M198.551,318.547V193.455l100.671,62.546
	L198.551,318.547z"/>
<g>
</g>
<g>
</g>
<g>
</g>
<g>
</g>
<g>
</g>
<g>
</g>
<g>
</g>
<g>
</g>
<g>
</g>
<g>
</g>
<g>
</g>
<g>
</g>
<g>
</g>
<g>
</g>
<g>
</g>
</svg>
