<?xml version="1.0" encoding="iso-8859-1"?>
<!-- Generator: Adobe Illustrator 19.0.0, SVG Export Plug-In . SVG Version: 6.00 Build 0)  -->
<svg version="1.1" id="Layer_1" xmlns="http://www.w3.org/2000/svg" xmlns:xlink="http://www.w3.org/1999/xlink" x="0px" y="0px"
	 viewBox="0 0 512.001 512.001" style="enable-background:new 0 0 512.001 512.001;" xml:space="preserve">
<circle style="fill:#CEE8FA;" cx="175.013" cy="404.902" r="91.797"/>
<g>
	<path style="fill:#2D527C;" d="M266.813,0.002c-8.45,0-15.3,6.851-15.3,15.3v314.752c-19.455-19.879-46.554-32.247-76.498-32.247
		c-59.053,0-107.097,48.044-107.097,107.097s48.044,107.097,107.097,107.097s107.097-48.044,107.097-107.097V15.302
		C282.113,6.852,275.263,0.002,266.813,0.002z M175.016,481.4c-42.181,0-76.498-34.317-76.498-76.498s34.317-76.498,76.498-76.498
		s76.498,34.317,76.498,76.498S217.197,481.4,175.016,481.4z"/>
	<path style="fill:#2D527C;" d="M428.784,208.246c-8.45,0-15.3-6.851-15.3-15.3c0-33.726-14.14-37.681-48.299-47.234
		c-14.994-4.195-31.987-8.949-47.204-17.928c-7.276-4.295-9.695-13.675-5.401-20.951c4.295-7.28,13.675-9.695,20.951-5.401
		c11.767,6.943,26.067,10.942,39.895,14.813c34.736,9.715,70.655,19.762,70.655,76.703
		C444.083,201.395,437.234,208.246,428.784,208.246z"/>
	<path style="fill:#2D527C;" d="M428.784,108.94c-8.45,0-15.3-6.851-15.3-15.3c0-33.726-14.14-37.681-48.299-47.234
		c-14.994-4.195-31.987-8.949-47.204-17.928c-7.276-4.295-9.695-13.675-5.401-20.951c4.295-7.278,13.675-9.695,20.951-5.401
		c11.767,6.943,26.067,10.942,39.895,14.813c34.736,9.715,70.655,19.762,70.655,76.703
		C444.083,102.089,437.234,108.94,428.784,108.94z"/>
	<path style="fill:#2D527C;" d="M428.784,307.553c-8.45,0-15.3-6.851-15.3-15.3c0-33.726-14.14-37.681-48.299-47.234
		c-14.991-4.194-31.981-8.947-47.202-17.926c-7.278-4.295-9.697-13.675-5.404-20.951c4.295-7.278,13.675-9.694,20.951-5.404
		c11.773,6.946,26.07,10.945,39.897,14.815c34.736,9.715,70.655,19.762,70.655,76.703
		C444.083,300.703,437.234,307.553,428.784,307.553z"/>
	<path style="fill:#2D527C;" d="M428.784,406.859c-8.45,0-15.3-6.851-15.3-15.3c0-33.726-14.14-37.681-48.299-47.234
		c-14.991-4.194-31.981-8.947-47.202-17.926c-7.278-4.295-9.697-13.675-5.404-20.951c4.295-7.278,13.675-9.692,20.951-5.404
		c11.773,6.946,26.07,10.945,39.897,14.815c34.736,9.715,70.655,19.762,70.655,76.703
		C444.083,400.01,437.234,406.859,428.784,406.859z"/>
</g>
<g>
</g>
<g>
</g>
<g>
</g>
<g>
</g>
<g>
</g>
<g>
</g>
<g>
</g>
<g>
</g>
<g>
</g>
<g>
</g>
<g>
</g>
<g>
</g>
<g>
</g>
<g>
</g>
<g>
</g>
</svg>
