<?xml version="1.0" encoding="iso-8859-1"?>
<!-- Generator: Adobe Illustrator 19.0.0, SVG Export Plug-In . SVG Version: 6.00 Build 0)  -->
<svg version="1.1" id="Layer_1" xmlns="http://www.w3.org/2000/svg" xmlns:xlink="http://www.w3.org/1999/xlink" x="0px" y="0px"
	 viewBox="0 0 512 512" style="enable-background:new 0 0 512 512;" xml:space="preserve">
<path style="fill:#2D527C;" d="M255.999,380.408c-89.239,0-161.838-72.601-161.838-161.838v-82.491
	c0-7.958,6.451-14.409,14.409-14.409s14.409,6.451,14.409,14.409v82.491c0,73.347,59.673,133.02,133.02,133.02
	c33.132,0,64.876-12.253,89.384-34.505c5.89-5.349,15.004-4.909,20.353,0.983s4.909,15.004-0.983,20.353
	C334.933,365.496,296.31,380.408,255.999,380.408z"/>
<path style="fill:#CEE8FA;" d="M256.001,304.677L256.001,304.677c-47.557,0-86.108-38.551-86.108-86.108V100.517
	c0-47.555,38.551-86.108,86.108-86.108l0,0c47.555,0,86.108,38.551,86.108,86.108v118.052
	C342.107,266.124,303.556,304.677,256.001,304.677z"/>
<g>
	<path style="fill:#2D527C;" d="M403.43,121.668h-46.914v-21.151C356.516,45.091,311.425,0,255.999,0
		S155.483,45.091,155.483,100.517v118.052c0,55.425,45.091,100.517,100.517,100.517s100.517-45.091,100.517-100.517v-68.082h32.505
		v68.082c0,7.958,6.451,14.409,14.409,14.409c7.958,0,14.409-6.451,14.409-14.409v-82.491
		C417.839,128.12,411.388,121.668,403.43,121.668z M327.698,218.569c0,39.535-32.164,71.699-71.699,71.699
		S184.3,258.104,184.3,218.569V100.517c0-39.535,32.164-71.699,71.699-71.699c39.534,0,71.699,32.164,71.699,71.699v21.151h-42.277
		c-8.132-6.331-18.34-10.117-29.422-10.117c-26.462,0-47.992,21.528-47.992,47.992c0,26.462,21.528,47.992,47.992,47.992
		c26.463,0,47.992-21.528,47.992-47.992c0-3.096-0.305-6.122-0.869-9.057h24.576V218.569z M275.173,159.543
		c0,10.572-8.601,19.174-19.174,19.174c-10.573,0-19.174-8.601-19.174-19.174c0-10.573,8.601-19.174,19.174-19.174
		C266.573,140.369,275.173,148.971,275.173,159.543z"/>
	<path style="fill:#2D527C;" d="M337.908,483.182h-67.5V430.83c0-7.958-6.451-14.409-14.409-14.409s-14.409,6.451-14.409,14.409
		v52.352h-67.5c-7.958,0-14.409,6.451-14.409,14.409c0,7.958,6.451,14.409,14.409,14.409h163.817
		c7.958,0,14.409-6.451,14.409-14.409C352.316,489.633,345.866,483.182,337.908,483.182z"/>
</g>
<g>
</g>
<g>
</g>
<g>
</g>
<g>
</g>
<g>
</g>
<g>
</g>
<g>
</g>
<g>
</g>
<g>
</g>
<g>
</g>
<g>
</g>
<g>
</g>
<g>
</g>
<g>
</g>
<g>
</g>
</svg>
