<?xml version="1.0" encoding="iso-8859-1"?>
<!-- Generator: Adobe Illustrator 19.0.0, SVG Export Plug-In . SVG Version: 6.00 Build 0)  -->
<svg version="1.1" id="Layer_1" xmlns="http://www.w3.org/2000/svg" xmlns:xlink="http://www.w3.org/1999/xlink" x="0px" y="0px"
	 viewBox="0 0 512 512" style="enable-background:new 0 0 512 512;" xml:space="preserve">
<path style="fill:#2D527C;" d="M219.835,512H43.489c-7.855,0-14.222-6.367-14.222-14.222s6.367-14.222,14.222-14.222h162.125V28.444
	H57.712v412.444c0,7.855-6.367,14.222-14.222,14.222s-14.222-6.367-14.222-14.222V14.222C29.267,6.367,35.634,0,43.489,0h176.347
	c7.855,0,14.222,6.367,14.222,14.222v483.556C234.057,505.633,227.69,512,219.835,512z"/>
<rect x="100.38" y="71.111" style="fill:#CEE8FA;" width="62.569" height="369.778"/>
<g>
	<path style="fill:#2D527C;" d="M162.946,455.111h-62.568c-7.855,0-14.222-6.367-14.222-14.222V71.111
		c0-7.855,6.367-14.222,14.222-14.222h62.569c7.855,0,14.222,6.367,14.222,14.222v369.778
		C177.168,448.744,170.801,455.111,162.946,455.111z M114.601,426.667h34.125V85.333h-34.125V426.667z"/>
	<path style="fill:#2D527C;" d="M468.509,512H292.164c-7.855,0-14.222-6.367-14.222-14.222s6.367-14.222,14.222-14.222h162.125
		V28.444H306.386v412.444c0,7.855-6.367,14.222-14.222,14.222c-7.855,0-14.222-6.367-14.222-14.222V14.222
		C277.941,6.367,284.309,0,292.164,0h176.347c7.855,0,14.222,6.367,14.222,14.222v483.556C482.731,505.633,476.364,512,468.509,512z
		"/>
</g>
<rect x="349.055" y="71.111" style="fill:#CEE8FA;" width="62.569" height="369.778"/>
<path style="fill:#2D527C;" d="M411.62,455.111h-62.569c-7.855,0-14.222-6.367-14.222-14.222V71.111
	c0-7.855,6.367-14.222,14.222-14.222h62.569c7.855,0,14.222,6.367,14.222,14.222v369.778
	C425.842,448.744,419.475,455.111,411.62,455.111z M363.275,426.667h34.125V85.333h-34.125V426.667z"/>
<g>
</g>
<g>
</g>
<g>
</g>
<g>
</g>
<g>
</g>
<g>
</g>
<g>
</g>
<g>
</g>
<g>
</g>
<g>
</g>
<g>
</g>
<g>
</g>
<g>
</g>
<g>
</g>
<g>
</g>
</svg>
