<?xml version="1.0" encoding="iso-8859-1"?>
<!-- Generator: Adobe Illustrator 19.0.0, SVG Export Plug-In . SVG Version: 6.00 Build 0)  -->
<svg version="1.1" id="Layer_1" xmlns="http://www.w3.org/2000/svg" xmlns:xlink="http://www.w3.org/1999/xlink" x="0px" y="0px"
	 viewBox="0 0 512 512" style="enable-background:new 0 0 512 512;" xml:space="preserve">
<polygon style="fill:#CEE8FA;" points="201.191,172.761 349.695,256 201.191,339.239 "/>
<g>
	<path style="fill:#2D527C;" d="M201.191,353.757c-2.538,0-5.074-0.665-7.339-1.992c-4.447-2.605-7.179-7.374-7.179-12.526V172.761
		c0-5.154,2.732-9.922,7.179-12.526c4.448-2.605,9.943-2.658,14.438-0.138l148.506,83.239c4.582,2.568,7.419,7.411,7.419,12.664
		s-2.838,10.096-7.419,12.664l-148.507,83.239C206.082,353.14,203.636,353.757,201.191,353.757z M215.709,197.542v116.916
		L320.003,256L215.709,197.542z"/>
	<path style="fill:#2D527C;" d="M255.996,512c-68.38,0-132.667-26.629-181.02-74.98c-5.669-5.669-5.669-14.862,0-20.533
		c5.669-5.669,14.862-5.669,20.533,0c42.867,42.869,99.863,66.476,160.488,66.476s117.62-23.608,160.488-66.476
		C459.351,373.62,482.96,316.624,482.96,256s-23.608-117.62-66.476-160.488c-42.869-42.869-99.863-66.476-160.488-66.476
		S138.376,52.644,95.509,95.512c-57.256,57.256-79.728,141.45-58.65,219.728c2.085,7.742-2.501,15.708-10.244,17.793
		c-7.738,2.086-15.708-2.501-17.793-10.244C-2.68,280.078-2.935,234.853,8.086,192.005C19.44,147.853,42.572,107.387,74.977,74.98
		C123.328,26.629,187.616,0,255.996,0s132.667,26.629,181.02,74.98c48.352,48.352,74.98,112.639,74.98,181.02
		s-26.629,132.667-74.98,181.02C388.663,485.371,324.376,512,255.996,512z"/>
	<path style="fill:#2D527C;" d="M255.996,452.028c-108.091,0-196.028-87.938-196.028-196.028S147.905,59.972,255.996,59.972
		c69.93,0,135.07,37.687,169.997,98.355c4,6.948,1.61,15.825-5.338,19.826c-6.947,4.001-15.825,1.61-19.826-5.338
		c-29.76-51.693-85.258-83.807-144.833-83.807c-92.08,0-166.992,74.913-166.992,166.992s74.913,166.992,166.992,166.992
		S422.988,348.079,422.988,256c0-8.018,6.5-14.518,14.518-14.518s14.518,6.5,14.518,14.518
		C452.024,364.091,364.085,452.028,255.996,452.028z"/>
</g>
<g>
</g>
<g>
</g>
<g>
</g>
<g>
</g>
<g>
</g>
<g>
</g>
<g>
</g>
<g>
</g>
<g>
</g>
<g>
</g>
<g>
</g>
<g>
</g>
<g>
</g>
<g>
</g>
<g>
</g>
</svg>
