<?xml version="1.0" encoding="iso-8859-1"?>
<!-- Generator: Adobe Illustrator 19.0.0, SVG Export Plug-In . SVG Version: 6.00 Build 0)  -->
<svg version="1.1" id="Layer_1" xmlns="http://www.w3.org/2000/svg" xmlns:xlink="http://www.w3.org/1999/xlink" x="0px" y="0px"
	 viewBox="0 0 512.001 512.001" style="enable-background:new 0 0 512.001 512.001;" xml:space="preserve">
<circle style="fill:#CEE8FA;" cx="155.28" cy="399.321" r="96.587"/>
<g>
	<path style="fill:#2D527C;" d="M251.865,0.002c-8.889,0-16.098,7.209-16.098,16.098v304.461
		c-20.47-20.916-48.982-33.929-80.489-33.929c-62.134,0-112.685,50.55-112.685,112.685s50.55,112.685,112.685,112.685
		s112.685-50.55,112.685-112.685V16.1C267.963,7.209,260.754,0.002,251.865,0.002z M155.278,479.804
		c-44.382,0-80.489-36.107-80.489-80.489s36.107-80.489,80.489-80.489s80.489,36.107,80.489,80.489S199.66,479.804,155.278,479.804z
		"/>
	<path style="fill:#2D527C;" d="M453.311,204.383h-31.022c-8.889,0-16.098-7.209-16.098-16.098c0-35.483-14.876-39.644-50.819-49.7
		c-15.774-4.412-33.652-9.414-49.665-18.859c-4.907-2.896-7.919-8.168-7.919-13.865V83.69c0-8.889,7.209-16.098,16.098-16.098
		c8.889,0,16.098,7.209,16.098,16.098v12.431c10.608,4.899,22.492,8.223,34.061,11.46c32.764,9.164,66.526,18.612,73.168,63.623
		v-31.043c0-26.858-7.271-45.298-22.881-58.036c-13.778-11.246-31.664-16.246-50.602-21.539
		c-25.525-7.146-49.631-13.894-63.475-35.921c-4.73-7.529-2.463-17.466,5.064-22.196c7.529-4.731,17.466-2.463,22.196,5.064
		c6.895,10.971,20.837,15.315,44.889,22.048c20.291,5.671,43.297,12.102,62.284,27.601c23.039,18.799,34.72,46.717,34.72,82.979
		v48.124C469.409,197.175,462.2,204.383,453.311,204.383z"/>
	<path style="fill:#2D527C;" d="M422.287,309.739c-8.889,0-16.098-7.209-16.098-16.098c0-35.483-14.876-39.644-50.818-49.699
		c-15.774-4.411-33.649-9.412-49.667-18.86c-7.658-4.519-10.203-14.388-5.686-22.044c4.517-7.658,14.387-10.204,22.044-5.686
		c12.387,7.308,27.431,11.516,41.98,15.587c36.547,10.224,74.341,20.794,74.341,80.703
		C438.385,302.53,431.177,309.739,422.287,309.739z"/>
</g>
<g>
</g>
<g>
</g>
<g>
</g>
<g>
</g>
<g>
</g>
<g>
</g>
<g>
</g>
<g>
</g>
<g>
</g>
<g>
</g>
<g>
</g>
<g>
</g>
<g>
</g>
<g>
</g>
<g>
</g>
</svg>
