<?xml version="1.0" encoding="iso-8859-1"?>
<!-- Generator: Adobe Illustrator 19.0.0, SVG Export Plug-In . SVG Version: 6.00 Build 0)  -->
<svg version="1.1" id="Layer_1" xmlns="http://www.w3.org/2000/svg" xmlns:xlink="http://www.w3.org/1999/xlink" x="0px" y="0px"
	 viewBox="0 0 512 512" style="enable-background:new 0 0 512 512;" xml:space="preserve">
<rect x="174.39" y="174.39" style="fill:#CEE8FA;" width="163.211" height="163.211"/>
<g>
	<path style="fill:#2D527C;" d="M337.604,352.125H174.39c-8.018,0-14.518-6.5-14.518-14.518V174.393
		c0-8.018,6.5-14.518,14.518-14.518h163.214c8.017,0,14.518,6.5,14.518,14.518v163.214
		C352.122,345.625,345.62,352.125,337.604,352.125z M188.908,323.089h134.178V188.911H188.908V323.089z"/>
	<path style="fill:#2D527C;" d="M255.997,512c-68.38,0-132.667-26.629-181.02-74.98c-5.669-5.669-5.669-14.862,0-20.533
		c5.669-5.669,14.862-5.669,20.533,0c42.867,42.869,99.863,66.476,160.488,66.476s117.62-23.608,160.488-66.476
		c42.867-42.867,66.476-99.863,66.476-160.488s-23.609-117.62-66.476-160.488c-42.869-42.869-99.863-66.476-160.488-66.476
		S138.376,52.644,95.509,95.512c-57.256,57.255-79.728,141.45-58.651,219.728c2.085,7.742-2.501,15.708-10.244,17.793
		c-7.741,2.086-15.708-2.503-17.793-10.244c-11.501-42.712-11.755-87.937-0.736-130.785c11.356-44.152,34.486-84.62,66.893-117.025
		C123.328,26.629,187.617,0,255.997,0c68.381,0,132.668,26.629,181.02,74.98c48.352,48.352,74.98,112.639,74.98,181.02
		s-26.629,132.667-74.98,181.02C388.665,485.371,324.376,512,255.997,512z"/>
	<path style="fill:#2D527C;" d="M255.997,452.028c-108.091,0-196.028-87.938-196.028-196.028S147.906,59.972,255.997,59.972
		c69.932,0,135.071,37.687,169.997,98.355c4.001,6.948,1.61,15.825-5.338,19.826c-6.951,4-15.825,1.609-19.824-5.338
		c-29.76-51.693-85.258-83.807-144.834-83.807c-92.08,0-166.992,74.913-166.992,166.992s74.913,166.992,166.992,166.992
		S422.988,348.079,422.988,256c0-8.018,6.501-14.518,14.518-14.518s14.518,6.5,14.518,14.518
		C452.024,364.091,364.087,452.028,255.997,452.028z"/>
</g>
<g>
</g>
<g>
</g>
<g>
</g>
<g>
</g>
<g>
</g>
<g>
</g>
<g>
</g>
<g>
</g>
<g>
</g>
<g>
</g>
<g>
</g>
<g>
</g>
<g>
</g>
<g>
</g>
<g>
</g>
</svg>
