<?xml version="1.0" ?><svg height="16px" version="1.1" viewBox="0 0 16 16" width="16px" xmlns="http://www.w3.org/2000/svg" xmlns:sketch="http://www.bohemiancoding.com/sketch/ns" xmlns:xlink="http://www.w3.org/1999/xlink"><title/><defs/><g fill="none" fill-rule="evenodd" id="Icons with numbers" stroke="none" stroke-width="1"><g fill="#000000" id="Group" transform="translate(-240.000000, -528.000000)"><path d="M248,544 C243.581722,544 240,540.418278 240,536 C240,531.581722 243.581722,528 248,528 C252.418278,528 256,531.581722 256,536 C256,540.418278 252.418278,544 248,544 L248,544 Z M251,532 L249,532 L249,536 L249,540 L251,540 L251,532 L251,532 Z M249,536 L245,532 L245,536 L245,540 L249,536 L249,536 Z M249,536" id="Shape copy 2"/></g></g></svg>