<?xml version="1.0" ?><svg enable-background="new 0 0 100 100" version="1.1" viewBox="0 0 100 100" xml:space="preserve" xmlns="http://www.w3.org/2000/svg" xmlns:xlink="http://www.w3.org/1999/xlink"><g id="Layer_2"><g><path d="M16.534,88.261c-3.316,0-6.014-2.698-6.014-6.014V41.508H89.48v40.739c0,3.316-2.698,6.014-6.014,6.014    H16.534z" fill="#494949"/><path d="M88.979,42.008v5.514v25.677v9.049c0,3.04-2.473,5.514-5.514,5.514H16.534    c-3.04,0-5.514-2.473-5.514-5.514V68.638V47.522v-5.514h5.514h66.932H88.979 M89.979,41.008h-6.514H16.534h-6.514v6.514v21.116    v13.609c0,3.597,2.916,6.514,6.514,6.514h66.932c3.597,0,6.514-2.916,6.514-6.514v-9.049V47.522V41.008L89.979,41.008z" fill="#191919"/></g><g><path d="M14.021,42.989c-0.33,0-0.621-0.223-0.708-0.541l-2.735-10.003c-0.107-0.391,0.125-0.795,0.516-0.902    l72.23-19.746c0.064-0.018,0.129-0.026,0.194-0.026c0.33,0,0.621,0.223,0.708,0.542l2.735,10.003    c0.107,0.391-0.124,0.796-0.515,0.902l-72.23,19.746C14.151,42.98,14.086,42.989,14.021,42.989z" fill="#EFEFEF"/><g><path d="M83.518,12.271c0.086,0,0.193,0.054,0.226,0.173l2.735,10.003c0.021,0.077-0.001,0.14-0.023,0.178     c-0.022,0.039-0.064,0.089-0.142,0.11l-72.23,19.746c-0.021,0.006-0.042,0.009-0.063,0.009c-0.086,0-0.193-0.054-0.226-0.173     l-2.735-10.003c-0.021-0.077,0.001-0.14,0.023-0.178c0.022-0.039,0.064-0.089,0.142-0.11l72.23-19.746     C83.476,12.273,83.497,12.271,83.518,12.271 M83.518,11.271c-0.108,0-0.217,0.014-0.326,0.044L10.961,31.06     c-0.658,0.18-1.045,0.859-0.865,1.517l2.735,10.003c0.15,0.549,0.647,0.909,1.19,0.909c0.108,0,0.217-0.014,0.326-0.044     L86.578,23.7c0.658-0.18,1.045-0.859,0.865-1.517L84.708,12.18C84.558,11.631,84.061,11.271,83.518,11.271L83.518,11.271z" fill="#191919"/></g></g><g><rect fill="#EFEFEF" height="8.944" width="78.959" x="10.521" y="41.508"/><path d="M88.979,42.008v7.944H11.021v-7.944H88.979 M89.979,41.008H10.021v9.944h79.959V41.008L89.979,41.008z" fill="#191919"/></g><g><g><polygon fill="#191919" points="10.521,50.452 10.521,41.508 31.588,41.508 19.856,50.452    "/><path d="M30.108,42.008l-10.42,7.943h-8.667v-7.943H30.108 M33.069,41.008H10.021v9.943h10.073l-0.035-0.026     L33.069,41.008L33.069,41.008z" fill="#191919"/></g><g><polygon fill="#191919" points="38.65,50.452 50.383,41.508 64.759,41.508 53.026,50.452    "/><path d="M63.278,42.008l-10.42,7.943H40.131l10.42-7.943H63.278 M66.24,41.008H50.214L37.17,50.952h16.095     l-0.035-0.026L66.24,41.008L66.24,41.008z" fill="#191919"/></g><g><polygon fill="#191919" points="71.821,50.452 83.553,41.508 89.48,41.508 89.48,50.452    "/><path d="M88.979,42.008v7.943H73.302l10.42-7.943H88.979 M89.979,41.008h-6.595l-13.044,9.943h19.639V41.008     L89.979,41.008z" fill="#191919"/></g></g><g><g><polygon fill="#191919" points="35.345,24.913 48.582,21.294 60.433,30.329 47.196,33.947    "/><path d="M48.475,21.842l10.85,8.271L47.303,33.4l-10.85-8.271L48.475,21.842 M48.688,20.747l-14.451,3.95     l12.852,9.797l14.451-3.95L48.688,20.747L48.688,20.747z" fill="#191919"/></g><g><path d="M13.924,43.021c-0.268,0-0.504-0.181-0.575-0.44l-2.807-10.269c-0.087-0.317,0.101-0.646,0.418-0.733     l10.551-2.885l11.851,9.035l-19.28,5.271C14.031,43.014,13.978,43.021,13.924,43.021C13.925,43.021,13.925,43.021,13.924,43.021z     " fill="#191919"/><path d="M21.405,29.242l10.85,8.271l-18.331,5.008c-0.025,0-0.077-0.015-0.093-0.072L11.024,32.18     c-0.012-0.044,0.024-0.107,0.068-0.119L21.405,29.242 M21.618,28.147l-10.79,2.95c-0.584,0.16-0.929,0.763-0.769,1.347     l2.807,10.269c0.133,0.488,0.575,0.808,1.057,0.808c0.096,0,0.193-0.013,0.29-0.039l20.256-5.537L21.618,28.147L21.618,28.147z" fill="#191919"/></g><g><path d="M62.415,17.513l21.042-5.752c0.052-0.014,0.105-0.021,0.158-0.021c0.268,0,0.504,0.181,0.575,0.44     l2.807,10.269c0.042,0.154,0.022,0.315-0.057,0.453c-0.079,0.139-0.207,0.238-0.361,0.28l-12.312,3.366L62.415,17.513z" fill="#191919"/><path d="M83.615,12.239c0.025,0,0.077,0.015,0.093,0.072l2.807,10.269c0.012,0.044-0.024,0.107-0.068,0.119     l-12.074,3.301l-10.85-8.271l20.065-5.485C83.597,12.24,83.606,12.239,83.615,12.239 M83.615,11.239     c-0.096,0-0.193,0.013-0.29,0.039l-22.017,6.019l12.852,9.797l12.55-3.431c0.584-0.16,0.929-0.763,0.769-1.347l-2.807-10.269     C84.539,11.56,84.097,11.239,83.615,11.239L83.615,11.239z" fill="#191919"/></g></g><path d="M10.422,31.374l12.579,9.59c0.131,0.1,0.131,0.298,0,0.398l-12.579,9.59   c-0.165,0.126-0.402,0.008-0.402-0.199V31.573C10.021,31.366,10.258,31.248,10.422,31.374z" fill="#303030"/><g><path d="M19.867,63.635h60.132c0.591,0,1.07-0.479,1.07-1.07c0-0.591-0.479-1.07-1.07-1.07H19.867    c-0.591,0-1.07,0.479-1.07,1.07C18.797,63.156,19.276,63.635,19.867,63.635z" fill="#D6D6D6"/><path d="M19.834,72.943h60.132c0.591,0,1.07-0.479,1.07-1.07c0-0.591-0.479-1.07-1.07-1.07H19.834    c-0.591,0-1.07,0.479-1.07,1.07C18.764,72.464,19.243,72.943,19.834,72.943z" fill="#D6D6D6"/><path d="M80.032,80.112H19.901c-0.591,0-1.07,0.479-1.07,1.07c0,0.591,0.479,1.07,1.07,1.07h60.132    c0.591,0,1.07-0.479,1.07-1.07C81.102,80.591,80.623,80.112,80.032,80.112z" fill="#D6D6D6"/></g></g></svg>