<?xml version="1.0" ?><svg height="25px" version="1.1" viewBox="0 0 25 25" width="25px" xmlns="http://www.w3.org/2000/svg" xmlns:sketch="http://www.bohemiancoding.com/sketch/ns" xmlns:xlink="http://www.w3.org/1999/xlink"><title/><desc/><defs/><g fill="none" fill-rule="evenodd" id="TabBar-Icons" stroke="none" stroke-width="1"><g fill="#000000" id="Pause-Filled"><path d="M12.5,25 C19.4035594,25 25,19.4035594 25,12.5 C25,5.59644063 19.4035594,0 12.5,0 C5.59644063,0 0,5.59644063 0,12.5 C0,19.4035594 5.59644063,25 12.5,25 L12.5,25 Z M9,7.99028109 C9,7.44336395 9.44386482,7 10,7 C10.5522847,7 11,7.45126428 11,7.99028109 L11,17.1686545 C11,17.7155716 10.5561352,18.1589355 10,18.1589355 C9.44771525,18.1589355 9,17.7076713 9,17.1686545 L9,7.99028109 L9,7.99028109 Z M14,7.99028109 C14,7.44336395 14.4438648,7 15,7 C15.5522847,7 16,7.45126428 16,7.99028109 L16,17.1686545 C16,17.7155716 15.5561352,18.1589355 15,18.1589355 C14.4477153,18.1589355 14,17.7076713 14,17.1686545 L14,7.99028109 L14,7.99028109 Z" id="Pause"/></g></g></svg>