<?xml version="1.0" ?><svg enable-background="new 0 0 40 40" id="Слой_1" version="1.1" viewBox="0 0 40 40" xml:space="preserve" xmlns="http://www.w3.org/2000/svg" xmlns:xlink="http://www.w3.org/1999/xlink"><g><path d="M28.1,26.8c0.4,0.4,0.4,1,0,1.4c-0.2,0.2-0.5,0.3-0.7,0.3s-0.5-0.1-0.7-0.3l-6.8-6.8l-6.8,6.8c-0.2,0.2-0.5,0.3-0.7,0.3   s-0.5-0.1-0.7-0.3c-0.4-0.4-0.4-1,0-1.4l6.8-6.8l-6.8-6.8c-0.4-0.4-0.4-1,0-1.4c0.4-0.4,1-0.4,1.4,0l6.8,6.8l6.8-6.8   c0.4-0.4,1-0.4,1.4,0c0.4,0.4,0.4,1,0,1.4L21.3,20L28.1,26.8z"/></g><g><path d="M19.9,40c-11,0-20-9-20-20s9-20,20-20c4.5,0,8.7,1.5,12.3,4.2c0.4,0.3,0.5,1,0.2,1.4c-0.3,0.4-1,0.5-1.4,0.2   c-3.2-2.5-7-3.8-11-3.8c-9.9,0-18,8.1-18,18s8.1,18,18,18s18-8.1,18-18c0-3.2-0.9-6.4-2.5-9.2c-0.3-0.5-0.1-1.1,0.3-1.4   c0.5-0.3,1.1-0.1,1.4,0.3c1.8,3.1,2.8,6.6,2.8,10.2C39.9,31,30.9,40,19.9,40z"/></g></svg>