<?xml version="1.0" encoding="iso-8859-1"?>
<!-- Generator: Adobe Illustrator 19.0.0, SVG Export Plug-In . SVG Version: 6.00 Build 0)  -->
<svg version="1.1" id="Layer_1" xmlns="http://www.w3.org/2000/svg" xmlns:xlink="http://www.w3.org/1999/xlink" x="0px" y="0px"
	 viewBox="0 0 512.001 512.001" style="enable-background:new 0 0 512.001 512.001;" xml:space="preserve">
<circle style="fill:#CEE8FA;" cx="175.012" cy="404.903" r="91.797"/>
<g>
	<path style="fill:#2D527C;" d="M266.812,0.003c-8.448,0-15.3,6.851-15.3,15.3v314.752c-19.455-19.879-46.554-32.247-76.498-32.247
		c-59.053,0-107.097,48.044-107.097,107.097s48.044,107.097,107.097,107.097s107.097-48.044,107.097-107.097V15.302
		C282.112,6.852,275.26,0.003,266.812,0.003z M175.015,481.4c-42.181,0-76.498-34.317-76.498-76.498s34.317-76.498,76.498-76.498
		s76.498,34.317,76.498,76.498S217.196,481.4,175.015,481.4z"/>
	<path style="fill:#2D527C;" d="M428.784,208.372c-8.448,0-15.3-6.851-15.3-15.3c0-33.723-14.138-37.678-48.299-47.236
		c-14.992-4.194-31.984-8.947-47.202-17.923c-7.278-4.295-9.697-13.675-5.404-20.951c4.293-7.276,13.673-9.698,20.951-5.404
		c11.767,6.943,26.069,10.942,39.898,14.813c34.736,9.718,70.655,19.766,70.655,76.703
		C444.083,201.522,437.232,208.372,428.784,208.372z"/>
	<path style="fill:#2D527C;" d="M428.784,108.94c-8.448,0-15.3-6.851-15.3-15.3c0-33.725-14.138-37.68-48.298-47.236
		c-14.994-4.194-31.987-8.947-47.205-17.927c-7.276-4.295-9.695-13.673-5.401-20.951c4.293-7.276,13.67-9.697,20.951-5.401
		c11.767,6.943,26.067,10.942,39.897,14.813c34.735,9.717,70.655,19.762,70.655,76.703
		C444.083,102.089,437.232,108.94,428.784,108.94z"/>
	<path style="fill:#2D527C;" d="M428.784,307.804c-8.448,0-15.3-6.851-15.3-15.3c0-33.723-14.138-37.678-48.298-47.234
		c-14.992-4.192-31.981-8.946-47.204-17.925c-7.278-4.295-9.697-13.675-5.404-20.951s13.673-9.698,20.951-5.404
		c11.773,6.946,26.07,10.945,39.898,14.815c34.735,9.717,70.655,19.762,70.655,76.701
		C444.083,300.954,437.232,307.804,428.784,307.804z"/>
</g>
<g>
</g>
<g>
</g>
<g>
</g>
<g>
</g>
<g>
</g>
<g>
</g>
<g>
</g>
<g>
</g>
<g>
</g>
<g>
</g>
<g>
</g>
<g>
</g>
<g>
</g>
<g>
</g>
<g>
</g>
</svg>
