<?xml version="1.0" encoding="iso-8859-1"?>
<!-- Generator: Adobe Illustrator 19.0.0, SVG Export Plug-In . SVG Version: 6.00 Build 0)  -->
<svg version="1.1" id="Layer_1" xmlns="http://www.w3.org/2000/svg" xmlns:xlink="http://www.w3.org/1999/xlink" x="0px" y="0px"
	 viewBox="0 0 512 512" style="enable-background:new 0 0 512 512;" xml:space="preserve">
<polygon style="fill:#CEE8FA;" points="172.758,298.411 255.997,164.434 339.236,298.411 "/>
<g>
	<path style="fill:#2D527C;" d="M339.263,312.929c-0.01-0.001-0.019,0-0.029,0H172.757c-5.271,0-10.128-2.857-12.689-7.464
		s-2.424-10.24,0.357-14.717l83.239-133.978c2.648-4.264,7.313-6.857,12.332-6.857s9.684,2.593,12.332,6.857l82.789,133.255
		c1.678,2.369,2.664,5.261,2.664,8.384C353.781,306.428,347.283,312.929,339.263,312.929z M198.869,283.893h114.255l-57.128-91.95
		L198.869,283.893z"/>
	<path style="fill:#2D527C;" d="M340.206,362.084H171.788c-8.017,0-14.518-6.501-14.518-14.518c0-8.017,6.501-14.518,14.518-14.518
		h168.417c8.017,0,14.518,6.501,14.518,14.518C354.724,355.583,348.222,362.084,340.206,362.084z"/>
	<path style="fill:#2D527C;" d="M255.997,512c-68.381,0-132.668-26.629-181.02-74.98c-5.669-5.669-5.669-14.862,0-20.533
		c5.671-5.668,14.861-5.668,20.533,0c42.867,42.867,99.863,66.476,160.488,66.476s117.62-23.609,160.488-66.476
		S482.961,316.624,482.961,256s-23.609-117.62-66.476-160.488s-99.863-66.476-160.488-66.476S138.377,52.645,95.509,95.512
		c-57.256,57.256-79.73,141.45-58.65,219.728c2.085,7.742-2.503,15.708-10.244,17.795c-7.748,2.085-15.708-2.503-17.795-10.244
		C-2.68,280.078-2.936,234.855,8.085,192.006c11.355-44.152,34.486-84.62,66.892-117.025C123.329,26.629,187.616,0,255.997,0
		s132.668,26.629,181.02,74.98s74.98,112.639,74.98,181.02s-26.629,132.668-74.98,181.02S324.377,512,255.997,512z"/>
	<path style="fill:#2D527C;" d="M255.997,452.028c-108.091,0-196.028-87.937-196.028-196.028S147.906,59.972,255.997,59.972
		c69.932,0,135.071,37.687,169.997,98.355c4.001,6.948,1.61,15.825-5.338,19.824c-6.953,4.003-15.823,1.611-19.824-5.338
		c-29.76-51.693-85.258-83.807-144.834-83.807c-92.08,0-166.992,74.913-166.992,166.992S163.918,422.99,255.997,422.99
		s166.992-74.913,166.992-166.992c0-8.017,6.501-14.518,14.518-14.518s14.518,6.501,14.518,14.518
		C452.025,364.091,364.088,452.028,255.997,452.028z"/>
</g>
<g>
</g>
<g>
</g>
<g>
</g>
<g>
</g>
<g>
</g>
<g>
</g>
<g>
</g>
<g>
</g>
<g>
</g>
<g>
</g>
<g>
</g>
<g>
</g>
<g>
</g>
<g>
</g>
<g>
</g>
</svg>
