<?xml version="1.0" encoding="iso-8859-1"?>
<!-- Generator: Adobe Illustrator 19.0.0, SVG Export Plug-In . SVG Version: 6.00 Build 0)  -->
<svg version="1.1" id="Layer_1" xmlns="http://www.w3.org/2000/svg" xmlns:xlink="http://www.w3.org/1999/xlink" x="0px" y="0px"
	 viewBox="0 0 512 512" style="enable-background:new 0 0 512 512;" xml:space="preserve">
<g>
	<path style="fill:#2D527C;" d="M496.106,512H15.896c-8.779,0-15.895-7.116-15.895-15.895s7.116-15.895,15.895-15.895h464.313V31.79
		H31.791v367.035c0,8.779-7.116,15.895-15.895,15.895s-15.895-7.116-15.895-15.895V15.895C0.001,7.116,7.119,0,15.896,0h480.208
		c8.779,0,15.895,7.116,15.895,15.895v480.21C512.001,504.884,504.884,512,496.106,512z"/>
	<path style="fill:#2D527C;" d="M426.081,441.975H85.923c-8.779,0-15.895-7.116-15.895-15.895V85.92
		c0-8.779,7.116-15.895,15.895-15.895h340.158c8.779,0,15.895,7.116,15.895,15.895s-7.116,15.895-15.895,15.895H101.818v308.369
		h308.368V154.829c0-8.779,7.116-15.895,15.895-15.895s15.895,7.116,15.895,15.895V426.08
		C441.976,434.859,434.86,441.975,426.081,441.975z"/>
</g>
<polygon style="fill:#CEE8FA;" points="164.866,302.436 256.002,155.748 347.137,302.436 "/>
<g>
	<path style="fill:#2D527C;" d="M347.169,318.331c-0.01,0-0.019,0-0.032,0H164.866c-5.77,0-11.089-3.128-13.892-8.172
		c-2.804-5.044-2.655-11.211,0.391-16.113L242.5,147.358c2.901-4.668,8.006-7.507,13.501-7.507c5.495,0,10.601,2.839,13.501,7.507
		l90.644,145.896c1.838,2.592,2.917,5.76,2.917,9.179C363.064,311.215,355.948,318.331,347.169,318.331z M193.455,286.54h125.092
		l-62.546-100.671L193.455,286.54z"/>
	<path style="fill:#2D527C;" d="M348.199,372.147H163.804c-8.779,0-15.895-7.116-15.895-15.895s7.116-15.895,15.895-15.895h184.394
		c8.779,0,15.895,7.116,15.895,15.895S356.978,372.147,348.199,372.147z"/>
</g>
<g>
</g>
<g>
</g>
<g>
</g>
<g>
</g>
<g>
</g>
<g>
</g>
<g>
</g>
<g>
</g>
<g>
</g>
<g>
</g>
<g>
</g>
<g>
</g>
<g>
</g>
<g>
</g>
<g>
</g>
</svg>
