<?xml version="1.0" encoding="iso-8859-1"?>
<!-- Generator: Adobe Illustrator 19.0.0, SVG Export Plug-In . SVG Version: 6.00 Build 0)  -->
<svg version="1.1" id="Layer_1" xmlns="http://www.w3.org/2000/svg" xmlns:xlink="http://www.w3.org/1999/xlink" x="0px" y="0px"
	 viewBox="0 0 512 512" style="enable-background:new 0 0 512 512;" xml:space="preserve">
<g>
	<path style="fill:#2D527C;" d="M255.996,512c-68.38,0-132.667-26.629-181.02-74.98c-5.669-5.669-5.669-14.862,0-20.533
		c5.669-5.668,14.862-5.668,20.533,0c42.867,42.867,99.863,66.476,160.488,66.476s117.62-23.609,160.488-66.476
		S482.96,316.624,482.96,256s-23.609-117.62-66.476-160.488S316.62,29.036,255.996,29.036S138.376,52.645,95.509,95.512
		c-57.256,57.256-79.728,141.45-58.65,219.728c2.085,7.742-2.501,15.708-10.244,17.795c-7.742,2.083-15.708-2.501-17.793-10.244
		C-2.68,280.078-2.935,234.855,8.086,192.006c11.355-44.152,34.486-84.62,66.892-117.025C123.328,26.629,187.616,0,255.996,0
		c68.381,0,132.668,26.629,181.02,74.98s74.98,112.639,74.98,181.02s-26.629,132.668-74.98,181.02S324.376,512,255.996,512z"/>
	<path style="fill:#2D527C;" d="M255.996,452.028c-108.091,0-196.028-87.937-196.028-196.028S147.905,59.972,255.996,59.972
		c69.932,0,135.071,37.687,169.997,98.355c4.001,6.948,1.61,15.825-5.338,19.824c-6.951,4.003-15.825,1.611-19.824-5.338
		c-29.76-51.693-85.258-83.807-144.834-83.807c-92.08,0-166.992,74.913-166.992,166.992S163.917,422.99,255.996,422.99
		s166.992-74.913,166.992-166.992c0-8.017,6.501-14.518,14.518-14.518s14.518,6.501,14.518,14.518
		C452.024,364.091,364.087,452.028,255.996,452.028z"/>
</g>
<polygon style="fill:#CEE8FA;" points="344.518,324.688 242.577,256 344.518,187.313 "/>
<g>
	<path style="fill:#2D527C;" d="M344.52,339.206c-2.841,0-5.671-0.832-8.114-2.478L234.465,268.04
		c-4.004-2.697-6.405-7.211-6.405-12.04c0-4.829,2.401-9.342,6.405-12.04l101.941-68.688c4.448-2.999,10.19-3.3,14.932-0.777
		c4.739,2.52,7.699,7.449,7.699,12.816v137.374c0,5.367-2.96,10.296-7.699,12.816C349.199,338.642,346.857,339.206,344.52,339.206z
		 M268.559,256L330,297.4v-82.798L268.559,256z"/>
	<path style="fill:#2D527C;" d="M257.397,334.995c-2.724,0-5.478-0.765-7.928-2.366l-98.654-64.476
		c-4.103-2.681-6.575-7.252-6.575-12.153s2.472-9.472,6.575-12.153l98.654-64.476c6.713-4.384,15.708-2.5,20.096,4.21
		c4.386,6.712,2.501,15.708-4.21,20.096L185.295,256l80.059,52.323c6.712,4.386,8.598,13.384,4.21,20.096
		C266.777,332.68,262.134,334.995,257.397,334.995z"/>
</g>
<g>
</g>
<g>
</g>
<g>
</g>
<g>
</g>
<g>
</g>
<g>
</g>
<g>
</g>
<g>
</g>
<g>
</g>
<g>
</g>
<g>
</g>
<g>
</g>
<g>
</g>
<g>
</g>
<g>
</g>
</svg>
