<?xml version="1.0" encoding="iso-8859-1"?>
<!-- Generator: Adobe Illustrator 19.0.0, SVG Export Plug-In . SVG Version: 6.00 Build 0)  -->
<svg version="1.1" id="Layer_1" xmlns="http://www.w3.org/2000/svg" xmlns:xlink="http://www.w3.org/1999/xlink" x="0px" y="0px"
	 viewBox="0 0 511.999 511.999" style="enable-background:new 0 0 511.999 511.999;" xml:space="preserve">
<polygon style="fill:#CEE8FA;" points="106.421,379.726 279.925,256 106.421,132.276 "/>
<g>
	<path style="fill:#2D527C;" d="M106.42,395.46c-2.461,0-4.933-0.577-7.203-1.746c-5.238-2.697-8.529-8.095-8.529-13.988V132.276
		c0-5.892,3.292-11.289,8.529-13.988c5.236-2.7,11.544-2.244,16.34,1.177l173.502,123.725c4.141,2.953,6.599,7.725,6.599,12.811
		c0,5.085-2.459,9.857-6.599,12.811L115.555,392.536C112.839,394.475,109.637,395.46,106.42,395.46z M122.155,162.821v186.36
		L252.824,256L122.155,162.821z"/>
	<path style="fill:#2D527C;" d="M471.363,20.564h-62.937c-8.688,0-15.734,7.044-15.734,15.734v135.314
		c0,8.69,7.046,15.734,15.734,15.734c8.688,0,15.734-7.044,15.734-15.734V52.032h31.468V461.12h-31.468V256
		c0-0.62-0.046-1.229-0.115-1.83c-0.019-0.164-0.05-0.324-0.074-0.486c-0.066-0.45-0.149-0.895-0.253-1.331
		c-0.039-0.167-0.082-0.33-0.127-0.496c-0.124-0.453-0.267-0.897-0.43-1.333c-0.047-0.126-0.088-0.255-0.138-0.379
		c-0.448-1.117-1.02-2.171-1.699-3.144c-0.094-0.135-0.197-0.263-0.296-0.395c-0.256-0.343-0.526-0.677-0.809-0.998
		c-0.129-0.146-0.26-0.291-0.393-0.433c-0.312-0.327-0.639-0.64-0.977-0.941c-0.105-0.094-0.205-0.194-0.315-0.285
		c-0.459-0.385-0.939-0.744-1.441-1.076c-0.022-0.014-0.041-0.033-0.064-0.047L49.243,2.564c-7.277-4.755-17.027-2.706-21.778,4.568
		c-4.753,7.275-2.708,17.026,4.568,21.778l347.625,227.092L56.372,467.193V132.278c0-8.69-7.046-15.734-15.734-15.734
		s-15.734,7.044-15.734,15.734v363.987c0,5.776,3.166,11.088,8.245,13.837c2.343,1.268,4.918,1.898,7.488,1.898
		c3.004,0,5.999-0.859,8.607-2.561l343.45-224.364v191.78c0,8.69,7.046,15.734,15.734,15.734h62.937
		c8.688,0,15.734-7.044,15.734-15.734V36.298C487.098,27.608,480.053,20.564,471.363,20.564z"/>
</g>
<g>
</g>
<g>
</g>
<g>
</g>
<g>
</g>
<g>
</g>
<g>
</g>
<g>
</g>
<g>
</g>
<g>
</g>
<g>
</g>
<g>
</g>
<g>
</g>
<g>
</g>
<g>
</g>
<g>
</g>
</svg>
