<?xml version="1.0" encoding="iso-8859-1"?>
<!-- Generator: Adobe Illustrator 19.0.0, SVG Export Plug-In . SVG Version: 6.00 Build 0)  -->
<svg version="1.1" id="Layer_1" xmlns="http://www.w3.org/2000/svg" xmlns:xlink="http://www.w3.org/1999/xlink" x="0px" y="0px"
	 viewBox="0 0 511.999 511.999" style="enable-background:new 0 0 511.999 511.999;" xml:space="preserve">
<rect x="176.367" y="174.392" style="fill:#CEE8FA;" width="53.993" height="163.213"/>
<path style="fill:#2D527C;" d="M230.367,352.126h-53.996c-8.017,0-14.518-6.5-14.518-14.518V174.392
	c0-8.018,6.501-14.518,14.518-14.518h53.996c8.017,0,14.518,6.5,14.518,14.518v163.216
	C244.885,345.626,238.384,352.126,230.367,352.126z M190.888,323.09h24.96V188.91h-24.96V323.09z"/>
<rect x="281.624" y="174.392" style="fill:#CEE8FA;" width="53.993" height="163.213"/>
<g>
	<path style="fill:#2D527C;" d="M335.624,352.126h-53.996c-8.017,0-14.518-6.5-14.518-14.518V174.392
		c0-8.018,6.501-14.518,14.518-14.518h53.996c8.017,0,14.518,6.5,14.518,14.518v163.216
		C350.142,345.626,343.641,352.126,335.624,352.126z M296.145,323.09h24.96V188.91h-24.96V323.09z"/>
	<path style="fill:#2D527C;" d="M255.996,511.882c-65.557,0-131.113-24.954-181.022-74.86c-5.669-5.669-5.669-14.862,0-20.532
		c5.671-5.669,14.861-5.671,20.533,0c88.492,88.494,232.488,88.495,320.98,0c42.868-42.868,66.477-99.865,66.477-160.489
		S459.355,138.378,416.487,95.51c-88.492-88.495-232.488-88.492-320.98,0c-57.257,57.255-79.729,141.45-58.65,219.731
		c2.085,7.743-2.503,15.709-10.245,17.793c-7.737,2.088-15.707-2.501-17.793-10.244c-11.501-42.714-11.755-87.938-0.736-130.787
		c11.355-44.153,34.486-84.62,66.892-117.026c99.818-99.814,262.227-99.814,362.045,0c48.353,48.353,74.98,112.641,74.98,181.022
		s-26.629,132.668-74.98,181.022C387.111,486.928,321.553,511.882,255.996,511.882z"/>
	<path style="fill:#2D527C;" d="M255.996,452.03C147.906,452.03,59.968,364.09,59.968,256S147.906,59.968,255.996,59.968
		c69.933,0,135.073,37.688,169.999,98.356c4.001,6.948,1.61,15.825-5.338,19.826c-6.951,4-15.825,1.609-19.825-5.338
		c-29.761-51.693-85.259-83.807-144.836-83.807c-92.08,0-166.992,74.914-166.992,166.994s74.914,166.994,166.992,166.994
		c92.081,0,166.994-74.914,166.994-166.994c0-8.018,6.501-14.518,14.518-14.518c8.017,0,14.518,6.5,14.518,14.518
		C452.026,364.092,364.088,452.03,255.996,452.03z"/>
</g>
<g>
</g>
<g>
</g>
<g>
</g>
<g>
</g>
<g>
</g>
<g>
</g>
<g>
</g>
<g>
</g>
<g>
</g>
<g>
</g>
<g>
</g>
<g>
</g>
<g>
</g>
<g>
</g>
<g>
</g>
</svg>
