<?xml version="1.0" encoding="iso-8859-1"?>
<!-- Generator: Adobe Illustrator 19.0.0, SVG Export Plug-In . SVG Version: 6.00 Build 0)  -->
<svg version="1.1" id="Layer_1" xmlns="http://www.w3.org/2000/svg" xmlns:xlink="http://www.w3.org/1999/xlink" x="0px" y="0px"
	 viewBox="0 0 512 512" style="enable-background:new 0 0 512 512;" xml:space="preserve">
<g>
	<path style="fill:#2D527C;" d="M496.106,512H15.896c-8.779,0-15.895-7.116-15.895-15.895s7.116-15.895,15.895-15.895h464.313V31.79
		H31.791v367.035c0,8.779-7.116,15.895-15.895,15.895s-15.895-7.116-15.895-15.895V15.895C0.001,7.116,7.119,0,15.896,0h480.208
		c8.779,0,15.895,7.116,15.895,15.895v480.21C512.001,504.884,504.884,512,496.106,512z"/>
	<path style="fill:#2D527C;" d="M426.081,441.975H85.923c-8.779,0-15.895-7.116-15.895-15.895V85.92
		c0-8.779,7.116-15.895,15.895-15.895h340.158c8.779,0,15.895,7.116,15.895,15.895s-7.116,15.895-15.895,15.895H101.818v308.369
		h308.368V154.829c0-8.779,7.116-15.895,15.895-15.895s15.895,7.116,15.895,15.895V426.08
		C441.976,434.859,434.86,441.975,426.081,441.975z"/>
</g>
<rect x="168.824" y="166.646" style="fill:#CEE8FA;" width="59.114" height="178.694"/>
<path style="fill:#2D527C;" d="M227.94,361.245h-59.118c-8.779,0-15.895-7.116-15.895-15.895V166.652
	c0-8.779,7.116-15.895,15.895-15.895h59.118c8.779,0,15.895,7.116,15.895,15.895V345.35
	C243.835,354.128,236.719,361.245,227.94,361.245z M184.716,329.454h27.327V182.547h-27.327V329.454L184.716,329.454z"/>
<rect x="284.065" y="166.646" style="fill:#CEE8FA;" width="59.114" height="178.694"/>
<path style="fill:#2D527C;" d="M343.181,361.245h-59.118c-8.779,0-15.895-7.116-15.895-15.895V166.652
	c0-8.779,7.116-15.895,15.895-15.895h59.118c8.779,0,15.895,7.116,15.895,15.895V345.35
	C359.076,354.128,351.96,361.245,343.181,361.245z M299.957,329.454h27.327V182.547h-27.327V329.454z"/>
<g>
</g>
<g>
</g>
<g>
</g>
<g>
</g>
<g>
</g>
<g>
</g>
<g>
</g>
<g>
</g>
<g>
</g>
<g>
</g>
<g>
</g>
<g>
</g>
<g>
</g>
<g>
</g>
<g>
</g>
</svg>
