<?xml version="1.0" encoding="iso-8859-1"?>
<!-- Generator: Adobe Illustrator 19.0.0, SVG Export Plug-In . SVG Version: 6.00 Build 0)  -->
<svg version="1.1" id="Layer_1" xmlns="http://www.w3.org/2000/svg" xmlns:xlink="http://www.w3.org/1999/xlink" x="0px" y="0px"
	 viewBox="0 0 512 512" style="enable-background:new 0 0 512 512;" xml:space="preserve">
<polygon style="fill:#CEE8FA;" points="189.238,164.865 351.832,256.001 189.238,347.136 "/>
<g>
	<path style="fill:#2D527C;" d="M189.238,363.031c-2.778,0-5.555-0.728-8.035-2.181c-4.869-2.852-7.86-8.073-7.86-13.714V164.865
		c0-5.643,2.991-10.863,7.86-13.714c4.87-2.852,10.887-2.909,15.806-0.151l162.594,91.135c5.017,2.812,8.122,8.115,8.122,13.865
		c0,5.751-3.106,11.054-8.122,13.865l-162.594,91.135C194.594,362.354,191.916,363.031,189.238,363.031z M205.133,191.997v128.008
		l114.188-64.004L205.133,191.997z"/>
	<path style="fill:#2D527C;" d="M496.105,512H15.895C7.116,512,0,504.884,0,496.105s7.116-15.895,15.895-15.895H480.21V31.79H31.79
		v367.035c0,8.779-7.116,15.895-15.895,15.895S0,407.605,0,398.826V15.895C0,7.116,7.116,0,15.895,0h480.21
		C504.882,0,512,7.116,512,15.895v480.21C512,504.884,504.884,512,496.105,512z"/>
	<path style="fill:#2D527C;" d="M426.078,441.975H85.92c-8.779,0-15.895-7.116-15.895-15.895V85.92
		c0-8.779,7.116-15.895,15.895-15.895h340.158c8.777,0,15.895,7.116,15.895,15.895s-7.118,15.895-15.895,15.895H101.815v308.369
		h308.368V154.829c0-8.779,7.118-15.895,15.895-15.895c8.777,0,15.895,7.116,15.895,15.895V426.08
		C441.973,434.859,434.857,441.975,426.078,441.975z"/>
</g>
<g>
</g>
<g>
</g>
<g>
</g>
<g>
</g>
<g>
</g>
<g>
</g>
<g>
</g>
<g>
</g>
<g>
</g>
<g>
</g>
<g>
</g>
<g>
</g>
<g>
</g>
<g>
</g>
<g>
</g>
</svg>
