<?xml version="1.0" encoding="iso-8859-1"?>
<!-- Generator: Adobe Illustrator 19.0.0, SVG Export Plug-In . SVG Version: 6.00 Build 0)  -->
<svg version="1.1" id="Layer_1" xmlns="http://www.w3.org/2000/svg" xmlns:xlink="http://www.w3.org/1999/xlink" x="0px" y="0px"
	 viewBox="0 0 512 512" style="enable-background:new 0 0 512 512;" xml:space="preserve">
<g>
	<path style="fill:#2D527C;" d="M496.105,512H15.895C7.118,512,0,504.884,0,496.105s7.118-15.895,15.895-15.895H480.21V31.79H31.79
		v367.035c0,8.779-7.118,15.895-15.895,15.895S0,407.605,0,398.826V15.895C0,7.116,7.118,0,15.895,0h480.21
		C504.882,0,512,7.116,512,15.895v480.21C512,504.884,504.884,512,496.105,512z"/>
	<path style="fill:#2D527C;" d="M426.08,441.975H85.922c-8.777,0-15.895-7.116-15.895-15.895V85.92
		c0-8.779,7.118-15.895,15.895-15.895H426.08c8.777,0,15.895,7.116,15.895,15.895s-7.118,15.895-15.895,15.895H101.817v308.369
		h308.368V154.829c0-8.779,7.118-15.895,15.895-15.895c8.777,0,15.895,7.116,15.895,15.895V426.08
		C441.975,434.859,434.857,441.975,426.08,441.975z"/>
</g>
<circle style="fill:#CEE8FA;" cx="256.009" cy="256.009" r="84.245"/>
<path style="fill:#2D527C;" d="M256.001,356.141c-55.217,0-100.14-44.923-100.14-100.14s44.923-100.14,100.14-100.14
	s100.14,44.923,100.14,100.14S311.218,356.141,256.001,356.141z M256.001,187.651c-37.688,0-68.35,30.662-68.35,68.35
	s30.662,68.35,68.35,68.35s68.35-30.662,68.35-68.35S293.688,187.651,256.001,187.651z"/>
<g>
</g>
<g>
</g>
<g>
</g>
<g>
</g>
<g>
</g>
<g>
</g>
<g>
</g>
<g>
</g>
<g>
</g>
<g>
</g>
<g>
</g>
<g>
</g>
<g>
</g>
<g>
</g>
<g>
</g>
</svg>
