<?xml version="1.0" encoding="iso-8859-1"?>
<!-- Generator: Adobe Illustrator 19.0.0, SVG Export Plug-In . SVG Version: 6.00 Build 0)  -->
<svg version="1.1" id="Layer_1" xmlns="http://www.w3.org/2000/svg" xmlns:xlink="http://www.w3.org/1999/xlink" x="0px" y="0px"
	 viewBox="0 0 512.001 512.001" style="enable-background:new 0 0 512.001 512.001;" xml:space="preserve">
<circle style="fill:#CEE8FA;" cx="155.28" cy="399.321" r="96.587"/>
<g>
	<path style="fill:#2D527C;" d="M251.865,0.002c-8.891,0-16.098,7.209-16.098,16.098v304.461
		c-20.47-20.916-48.982-33.929-80.489-33.929c-62.134,0-112.685,50.55-112.685,112.685s50.55,112.685,112.685,112.685
		s112.685-50.55,112.685-112.685V16.1C267.963,7.209,260.756,0.002,251.865,0.002z M155.278,479.804
		c-44.382,0-80.489-36.107-80.489-80.489s36.107-80.489,80.489-80.489s80.489,36.107,80.489,80.489S199.661,479.804,155.278,479.804
		z"/>
	<path style="fill:#2D527C;" d="M453.31,301.031h-31.022c-8.891,0-16.098-7.209-16.098-16.098c0-35.484-14.878-39.646-50.819-49.7
		c-15.773-4.411-33.651-9.414-49.665-18.86c-4.907-2.896-7.918-8.168-7.918-13.865v-86.603c0-8.889,7.207-16.098,16.098-16.098
		s16.098,7.209,16.098,16.098v76.864c10.61,4.899,22.492,8.223,34.061,11.46c32.764,9.163,66.526,18.604,73.168,63.618V140.161
		c0-26.858-7.27-45.298-22.88-58.036c-13.78-11.246-31.666-16.246-50.602-21.539c-25.526-7.146-49.633-13.896-63.475-35.921
		c-4.731-7.529-2.463-17.466,5.064-22.196c7.526-4.731,17.465-2.463,22.196,5.064c6.895,10.971,20.837,15.315,44.889,22.048
		c20.29,5.671,43.295,12.102,62.284,27.601c23.039,18.801,34.72,46.717,34.72,82.979v144.772
		C469.407,293.823,462.2,301.031,453.31,301.031z"/>
</g>
<g>
</g>
<g>
</g>
<g>
</g>
<g>
</g>
<g>
</g>
<g>
</g>
<g>
</g>
<g>
</g>
<g>
</g>
<g>
</g>
<g>
</g>
<g>
</g>
<g>
</g>
<g>
</g>
<g>
</g>
</svg>
