<?xml version="1.0" encoding="iso-8859-1"?>
<!-- Generator: Adobe Illustrator 19.0.0, SVG Export Plug-In . SVG Version: 6.00 Build 0)  -->
<svg version="1.1" id="Layer_1" xmlns="http://www.w3.org/2000/svg" xmlns:xlink="http://www.w3.org/1999/xlink" x="0px" y="0px"
	 viewBox="0 0 512 512" style="enable-background:new 0 0 512 512;" xml:space="preserve">
<path style="fill:#2D527C;" d="M494.282,512H17.718C7.934,512,0,504.068,0,494.282s7.934-17.718,17.718-17.718h458.847V35.435
	H35.435v362.305c0,9.785-7.934,17.718-17.718,17.718S0,407.526,0,397.741V17.718C0,7.932,7.934,0,17.718,0h476.565
	C504.066,0,512,7.932,512,17.718v476.565C512,504.068,504.066,512,494.282,512z"/>
<rect x="111.834" y="111.834" style="fill:#CEE8FA;" width="288.32" height="288.32"/>
<path style="fill:#2D527C;" d="M400.159,417.877H111.841c-9.784,0-17.718-7.932-17.718-17.718V111.841
	c0-9.785,7.934-17.718,17.718-17.718h288.318c9.784,0,17.718,7.932,17.718,17.718v288.318
	C417.877,409.943,409.943,417.877,400.159,417.877z M129.559,382.441h252.883V129.559H129.559V382.441z"/>
<g>
</g>
<g>
</g>
<g>
</g>
<g>
</g>
<g>
</g>
<g>
</g>
<g>
</g>
<g>
</g>
<g>
</g>
<g>
</g>
<g>
</g>
<g>
</g>
<g>
</g>
<g>
</g>
<g>
</g>
</svg>
