<?xml version="1.0" encoding="iso-8859-1"?>
<!-- Generator: Adobe Illustrator 19.0.0, SVG Export Plug-In . SVG Version: 6.00 Build 0)  -->
<svg version="1.1" id="Layer_1" xmlns="http://www.w3.org/2000/svg" xmlns:xlink="http://www.w3.org/1999/xlink" x="0px" y="0px"
	 viewBox="0 0 511.998 511.998" style="enable-background:new 0 0 511.998 511.998;" xml:space="preserve">
<path style="fill:#2D527C;" d="M256,439.233c-74.312,0-134.769-60.456-134.769-134.769S181.688,169.696,256,169.696
	c8.315,0,15.058,6.741,15.058,15.058c0,8.317-6.743,15.058-15.058,15.058c-57.705,0-104.653,46.948-104.653,104.653
	S198.295,409.117,256,409.117s104.653-46.948,104.653-104.653c0-8.316,6.743-15.058,15.058-15.058s15.058,6.741,15.058,15.058
	C390.769,378.776,330.311,439.233,256,439.233z"/>
<polygon style="fill:#CEE8FA;" points="213.449,239.673 325.672,304.465 213.449,369.256 "/>
<path style="fill:#2D527C;" d="M213.449,384.314c-2.601,0-5.2-0.673-7.529-2.018c-4.659-2.689-7.529-7.66-7.529-13.04V239.673
	c0-5.38,2.87-10.351,7.529-13.04c4.659-2.689,10.399-2.689,15.058,0l112.221,64.791c4.659,2.689,7.529,7.66,7.529,13.04
	c0,5.38-2.87,10.351-7.529,13.04l-112.221,64.791C218.65,383.641,216.05,384.314,213.449,384.314z M228.507,265.755v77.419
	l67.047-38.709L228.507,265.755z"/>
<g>
	<polygon style="fill:#CEE8FA;" points="169.191,35.336 72.263,132.264 15.058,132.264 15.058,112.809 92.531,35.336 	"/>
	<polygon style="fill:#CEE8FA;" points="341.092,35.336 244.164,132.264 167.505,132.264 264.448,35.336 	"/>
	<polygon style="fill:#CEE8FA;" points="496.942,35.336 496.942,51.403 416.066,132.264 339.421,132.264 436.349,35.336 	"/>
</g>
<path style="fill:#2D527C;" d="M496.942,20.278h-60.593h-95.257h-76.645h-95.257h-76.66H15.058C6.741,20.278,0,27.019,0,35.336
	v77.473v19.455c0,0.035,0.005,0.068,0.005,0.102v344.297c0,8.317,6.741,15.058,15.058,15.058h481.872
	c8.315,0,15.058-6.741,15.058-15.058V214.089c0-8.316-6.743-15.058-15.058-15.058s-15.058,6.741-15.058,15.058v247.516H30.12
	V147.322h40.635h1.506c3.993,0,7.824-1.587,10.647-4.41l92.517-92.517h52.662l-71.233,71.221c-4.307,4.307-5.596,10.783-3.265,16.41
	c2.329,5.627,7.821,9.295,13.912,9.295h7.686h68.976h95.257h76.643h80.876c8.315,0,15.058-6.741,15.058-15.058V51.401V35.334
	C512,27.019,505.257,20.278,496.942,20.278z M280.517,117.206l66.811-66.812h52.667l-66.811,66.812H280.517z M56.177,50.394
	L30.116,76.456V50.394H56.177z M66.026,117.206h-34.07l66.812-66.812h34.07L66.026,117.206z M203.862,117.206l66.823-66.812h34.055
	l-66.812,66.812H203.862z M375.774,117.206l66.812-66.812h34.067l-66.824,66.812H375.774z M452.423,117.206l29.461-29.455v29.455
	H452.423z"/>
<g>
</g>
<g>
</g>
<g>
</g>
<g>
</g>
<g>
</g>
<g>
</g>
<g>
</g>
<g>
</g>
<g>
</g>
<g>
</g>
<g>
</g>
<g>
</g>
<g>
</g>
<g>
</g>
<g>
</g>
</svg>
